<svg width="27" height="21" viewBox="0 0 27 21" fill="none" xmlns="http://www.w3.org/2000/svg">
<path d="M25.8125 0.0947266H1.4375C0.918945 0.0947266 0.5 0.513672 0.5 1.03223V19.7822C0.5 20.3008 0.918945 20.7197 1.4375 20.7197H25.8125C26.3311 20.7197 26.75 20.3008 26.75 19.7822V1.03223C26.75 0.513672 26.3311 0.0947266 25.8125 0.0947266ZM24.6406 3.34082V18.6104H2.60938V3.34082L1.80078 2.71094L2.95215 1.23145L4.20605 2.20703H23.0469L24.3008 1.23145L25.4521 2.71094L24.6406 3.34082ZM23.0469 2.2041L13.625 9.52832L4.20312 2.2041L2.94922 1.22852L1.79785 2.70801L2.60645 3.33789L12.6143 11.1191C12.9021 11.3427 13.2561 11.4641 13.6206 11.4641C13.9851 11.4641 14.3391 11.3427 14.627 11.1191L24.6406 3.34082L25.4492 2.71094L24.2979 1.23145L23.0469 2.2041Z" fill="#2091F9"/>
</svg>
