<svg width="26" height="33" viewBox="0 0 26 33" fill="none" xmlns="http://www.w3.org/2000/svg">
<g clip-path="url(#clip0_67_7924)">
<path d="M13.0013 20.0739C16.4941 20.0739 19.3346 17.2334 19.3346 13.7406C19.3346 10.2477 16.4941 7.40723 13.0013 7.40723C9.50847 7.40723 6.66797 10.2477 6.66797 13.7406C6.66797 17.2334 9.50847 20.0739 13.0013 20.0739ZM13.0013 10.5739C14.7477 10.5739 16.168 11.9941 16.168 13.7406C16.168 15.487 14.7477 16.9072 13.0013 16.9072C11.2549 16.9072 9.83464 15.487 9.83464 13.7406C9.83464 11.9941 11.2549 10.5739 13.0013 10.5739Z" fill="#2091F9"/>
<path d="M11.7485 32.4459C12.0164 32.6373 12.3375 32.7401 12.6668 32.7401C12.9961 32.7401 13.3172 32.6373 13.5851 32.4459C14.0665 32.1055 25.3794 23.9371 25.3335 13.7404C25.3335 6.75631 19.6509 1.07373 12.6668 1.07373C5.68272 1.07373 0.000139393 6.75631 0.000139393 13.7325C-0.0457773 23.9371 11.2671 32.1055 11.7485 32.4459ZM12.6668 4.2404C17.9061 4.2404 22.1668 8.50115 22.1668 13.7483C22.2001 20.7751 15.2191 27.0847 12.6668 29.1541C10.1161 27.0831 3.13356 20.772 3.16681 13.7404C3.16681 8.50115 7.42756 4.2404 12.6668 4.2404Z" fill="#2091F9"/>
</g>
<defs>
<clipPath id="clip0_67_7924">
<rect width="26" height="32" fill="white" transform="translate(0 0.907227)"/>
</clipPath>
</defs>
</svg>
